<svg xmlns="http://www.w3.org/2000/svg" viewBox="0 0 25 25">
    <path fill="#fff" d="M23.174 9.691C20.926 1.826 17.556-.422 9.691 1.826 1.826 4.074-.422 7.443 1.826 15.309c2.248 7.865 5.617 10.112 13.483 7.865 7.865-2.248 10.112-5.618 7.865-13.483zm-4.495 4.494l-1.123 1.124v2.247h-2.247v-2.247l-3.371 1.124 1.123 1.123-1.123 2.246-1.123-1.123-1.124-1.123H7.443v-2.247h2.248l-1.124-3.371-2.247 1.123-1.124-1.123 1.124-1.123 1.123-1.124V8.567a1.255 1.255 0 0 1 1.199-1.815c.449.026.848.291 1.049.691v2.248l3.37-1.124-1.123-2.247a1.124 1.124 0 0 1 2.247 0l1.124 1.123h1.124a1.256 1.256 0 1 1 1.123 2.248h-2.247l1.124 3.37 1.123-1.123a1.256 1.256 0 0 1 1.123 2.247zm-7.864-2.247l2.246-1.123 1.124 2.246-2.247 1.124-1.123-2.247z"/>
</svg>
