<svg id="Layer_1" data-name="Layer 1" xmlns="http://www.w3.org/2000/svg" viewBox="0 0 40 40"><defs><style>.cls-1{fill:#fff;}.cls-2{fill:#f34a34;}.cls-3{fill:#ce493e;}.cls-4{fill:#1b2934;}.cls-5{fill:#426076;}.cls-6{fill:#2c3f51;}.cls-7{fill:#f04b43;}.cls-8{fill:#955a2d;}.cls-9{fill:#d48000;}</style></defs><g id="Full_Logo" data-name="Full Logo"><path class="cls-1" d="M32.57,16.75a.54.54,0,0,0-1.05.19.68.68,0,0,0,0,.19,12.2,12.2,0,0,1,.8,4.37A12.4,12.4,0,0,1,21.57,33.79V28a8.2,8.2,0,0,0,1.08-.29v4.87a11.41,11.41,0,0,0,2.81-21.07.53.53,0,0,0-.74.24.46.46,0,0,0-.06.23.52.52,0,0,0,.28.47,10.34,10.34,0,0,1-1.21,18.66V26.79a1.66,1.66,0,0,0,1.17-1.57,1.62,1.62,0,0,0-.81-1.42c.39-3.73,2.08-2.75,2.08-3.93v-.69a6.59,6.59,0,0,0-1.09-2.69H14.82a6.64,6.64,0,0,0-1.1,2.69v.69c0,1.18,1.7.2,2.09,3.93A1.6,1.6,0,0,0,15,25.22a1.66,1.66,0,0,0,1.16,1.57v4.32A10.34,10.34,0,0,1,15,12.45a.53.53,0,0,0,.22-.7.53.53,0,0,0-.48-.31.48.48,0,0,0-.26.07,11.41,11.41,0,0,0,2.81,21.07V27.71a7.8,7.8,0,0,0,1.08.29v5.79a12.41,12.41,0,0,1-10-16.66A.55.55,0,0,0,8,16.44a.52.52,0,0,0-.21,0,.54.54,0,0,0-.51.35A13.49,13.49,0,0,0,19.4,35V28.14l.54,0,.55,0V35A13.52,13.52,0,0,0,32.57,16.75Z"/><path class="cls-1" d="M22.43,24.44a1.12,1.12,0,1,1-.32.78A1.1,1.1,0,0,1,22.43,24.44Z"/><path class="cls-1" d="M17.46,26a1.13,1.13,0,0,1-.79.32,1.1,1.1,0,0,1-.78-.32,1.1,1.1,0,0,1,0-1.57,1.1,1.1,0,0,1,.78-.32,1.13,1.13,0,0,1,.79.32,1.12,1.12,0,0,1,0,1.57Z"/></g><path class="cls-2" d="M8.09,34.59h0Z"/><path class="cls-3" d="M8.25,34.66l-.16-.07.12,0Z"/><circle cx="16.67" cy="25.22" r="0.65"/><circle cx="23.21" cy="25.22" r="0.65"/><circle class="cls-4" cx="19.98" cy="27.45" r="0.18"/><circle class="cls-4" cx="20.48" cy="27.29" r="0.18"/><circle class="cls-4" cx="19.44" cy="27.29" r="0.18"/><circle class="cls-4" cx="20.83" cy="26.92" r="0.18"/><circle class="cls-4" cx="19.1" cy="26.92" r="0.18"/><path class="cls-5" d="M13,16h7a0,0,0,0,1,0,0V17a0,0,0,0,1,0,0H13a.11.11,0,0,1-.11-.11v-.86A.11.11,0,0,1,13,16Z"/><path class="cls-6" d="M19.94,16h7a.11.11,0,0,1,.11.11v.85a.11.11,0,0,1-.11.11h-7a0,0,0,0,1,0,0V16A0,0,0,0,1,19.94,16Z"/><path class="cls-5" d="M20,14.87H15.79L15.44,8a.75.75,0,0,1,.75-.79H20Z"/><path class="cls-6" d="M24.15,14.87H19.94V7.22h3.8a.75.75,0,0,1,.75.79Z"/><rect class="cls-2" x="15.79" y="14.87" width="4.18" height="1.08"/><rect class="cls-7" x="19.94" y="14.87" width="4.21" height="1.08"/><path class="cls-7" d="M18.13,28.72a20.89,20.89,0,0,1-3.94,3.54c-1,.63-3.76.66-4.51.68h0L9,33H9a.21.21,0,1,1,0-.41h.57v-.45l-.59,0a.2.2,0,0,1,0-.4l.56,0v-.34L9,31.17a.21.21,0,1,1,.13-.39l.48.17h0a9.77,9.77,0,0,0,4.16-.17,10.35,10.35,0,0,0,4-2.67Z"/><path class="cls-2" d="M18.13,29.79a11.55,11.55,0,0,0-1.87,1.54,5.47,5.47,0,0,0-.91,1.39,8.24,8.24,0,0,1-2.19,2.87,5.1,5.1,0,0,1-3.35,1.09,8.16,8.16,0,0,1-2.36-.35h0l-.56-.21a.2.2,0,0,1-.12-.26A.2.2,0,0,1,7,35.74l.55.2.11-.35-.59-.22A.2.2,0,0,1,7,35.11.19.19,0,0,1,7.24,35l.57.21L8,34.8l-.52-.19a.2.2,0,0,1-.12-.26.2.2,0,0,1,.26-.12l.5.19h0l.16.07a4.25,4.25,0,0,0,4.87-1.41,10,10,0,0,1,1.51-2.23,4.71,4.71,0,0,1,3.46-1.53Z"/><path class="cls-2" d="M16,28.11h4a0,0,0,0,1,0,0v2.71a0,0,0,0,1,0,0H15.79a0,0,0,0,1,0,0V28.27A.16.16,0,0,1,16,28.11Z"/><path class="cls-7" d="M20,28.11h4a.16.16,0,0,1,.16.16v2.38a.16.16,0,0,1-.16.16H20a0,0,0,0,1,0,0V28.11A0,0,0,0,1,20,28.11Z"/><path class="cls-8" d="M39.81,12h0l-2,0-1.61,0,1.5-1.89a.19.19,0,0,0,0-.27.18.18,0,0,0-.27,0l-1.74,2.2,0,0h0L35,13l-.35-2.12a.21.21,0,0,0-.23-.16.2.2,0,0,0-.15.23l.41,2.47c-1.47,1.89-2.28,3-2.64,3.55a.19.19,0,0,0,.05.26h0a.19.19,0,0,0,.27-.05c.57-.85,2.16-2.94,3.57-4.75.43,0,2.52,0,3.93,0a.2.2,0,0,0,.17-.28A.18.18,0,0,0,39.81,12Z"/><path class="cls-8" d="M31,4.67h0l-1.9.65-1.52.53c.29-.81.57-1.59.82-2.27a.19.19,0,0,0-.11-.25.21.21,0,0,0-.25.12s-.43,1.17-.95,2.63c0,0,0,0,0,0h0l-.37,1-1-1.9a.19.19,0,0,0-.26-.08.19.19,0,0,0-.08.26l1.18,2.21c-.8,2.26-1.21,3.59-1.38,4.2a.2.2,0,0,0,.13.24h0a.18.18,0,0,0,.23-.13c.28-1,1.12-3.48,1.89-5.64.4-.15,2.38-.83,3.71-1.29a.19.19,0,0,0,.08-.31A.17.17,0,0,0,31,4.67Z"/><path class="cls-8" d="M.19,12h0l2,0,1.61,0-1.5-1.89a.19.19,0,0,1,0-.27.18.18,0,0,1,.27,0l1.74,2.2,0,0h0l.68.87.35-2.12a.21.21,0,0,1,.23-.16.2.2,0,0,1,.15.23l-.41,2.47C6.84,15.34,7.65,16.47,8,17a.19.19,0,0,1,0,.26H8a.19.19,0,0,1-.27-.05c-.57-.85-2.16-2.94-3.57-4.75-.43,0-2.52,0-3.93,0A.2.2,0,0,1,0,12.14.18.18,0,0,1,.19,12Z"/><path class="cls-8" d="M9,4.67H9l1.9.65,1.52.53c-.29-.81-.58-1.59-.83-2.27a.21.21,0,0,1,.12-.25.19.19,0,0,1,.24.12s.44,1.17,1,2.63a0,0,0,0,0,0,0h0l.37,1,1-1.9a.19.19,0,0,1,.26-.08.19.19,0,0,1,.08.26L13.44,7.65c.79,2.26,1.21,3.59,1.38,4.2a.2.2,0,0,1-.13.24h0a.2.2,0,0,1-.24-.13c-.27-1-1.11-3.48-1.89-5.64-.39-.15-2.37-.83-3.7-1.29a.19.19,0,0,1-.08-.31A.17.17,0,0,1,9,4.67Z"/><path class="cls-9" d="M24.88,27.15l-4.8-2.92a.12.12,0,0,0-.17.05l-.55,1.29a.11.11,0,0,0,.07.16l5.43,1.47A0,0,0,0,0,24.88,27.15Z"/></svg>